<?xml version="1.0" encoding="utf-8"?>
<!-- Generator: Adobe Illustrator 18.0.0, SVG Export Plug-In . SVG Version: 6.00 Build 0)  -->
<!DOCTYPE svg PUBLIC "-//W3C//DTD SVG 1.1//EN" "http://www.w3.org/Graphics/SVG/1.1/DTD/svg11.dtd">
<svg version="1.1" id="Layer_1" xmlns="http://www.w3.org/2000/svg" xmlns:xlink="http://www.w3.org/1999/xlink" x="0px" y="0px"
	 viewBox="0 0 119.5 91" enable-background="new 0 0 119.5 91" xml:space="preserve">
<g>
	<path fill="#9E76B4" d="M78.3,56.4c-1.5-5.7-5.2-9.8-6.2-10.8c-3.6-4.2-8.3-6.6-13.8-6.6c-1,0-24.9,0.1-24.9,0.1
		c-8.5,0-15.4,8.1-15.4,18v0.2c0,0.9,0,5.2,0,6.4c0,7.1-5.6,15.7-12.4,15.7c0,0-0.7,0-1.3,0c-0.1,0-0.2,0-0.3,0h-1
		c-1.3,0-2.4,1.1-2.4,2.4v4.8c0,1.2,1,2.2,2.2,2.3l0,0c0,0,0,0,0,0c0,0,0.1,0,0.1,0h1c0,0,0.1,0,0.1,0c1.6,0,4,0,4.2,0
		c0,0,11.8,0.6,17.1-10.1c0.5-1.3,0.9-2.7,1.5-3.9c0,0,0-0.1,0-0.1c0,0,0,0,0,0c0.4-0.9,0.9-1.8,1.4-2.6c0.5-0.8,1.1-1.5,1.7-2.2
		c0.3-0.3,0.6-0.6,0.9-0.9c0.4-0.4,1.4-1.2,0.9-1.8c-0.2-0.2-1.5-0.9-1.7-1c-0.3-0.2-0.6-0.4-0.6-0.7c0-0.4,0.2-0.6,0.5-0.8
		l10.5-3.3c0.3-0.1,0.6,0,0.8,0.2c0.2,0.2,0.3,0.5,0.2,0.8l-2.9,9.8c-0.1,0.3-0.4,0.6-0.7,0.6c-0.3,0-0.6-0.3-0.8-0.5
		c-0.2-0.2-1.1-1.2-1.3-1.4c-0.3-0.2-0.6,0-0.8,0.1c-0.1,0.1-0.2,0.2-0.3,0.3c0,0,0,0-0.1,0.1c-0.7,0.7-5.2,5.1-3.1,6
		c1,0.2,2.1,0.4,3.4,0.5c1.9,0,2.6,2.1,2.9,4.5l0,0c0,0,0.3,3.1,0.6,4.8c0.1,1.4,1.2,2.6,2.6,2.6H50h2.1h2.7c0.2,0,0.3,0,0.5,0
		c0.2,0,0.3,0,0.5-0.1c0.9-0.2,1.8-0.9,1.9-1.8c0-0.2,0-0.7,0-1c0-0.6,0-2.6,0-2.6c0-0.8,0.7-1.5,1.5-1.5c0.8,0,1.5,0.7,1.5,1.5V87
		c0,0,0,0.7,0,1c0.1,1,0.9,1.6,1.8,1.8c0.2,0,0.3,0.1,0.5,0.1c0.2,0,0.4,0,0.5,0H68h0.4c0,0,0,0,0,0h8.7c1.1,0,2-1,2-2.1v-1.3
		l0.1-0.7C79.3,85.8,79.7,61.5,78.3,56.4z"/>
	<path fill="#69AF3D" d="M102.9,24.4c-1.3-0.2-2.2-1.4-2-2.7c0.1-0.8,0.1-1.5,0.1-2.3c0-10.3-8.3-18.6-18.5-18.8h-0.3
		c-0.1,0-0.2,0-0.3,0c-0.1,0-0.2,0-0.3,0h-0.3C71,0.7,62.7,9.1,62.7,19.4c0,0.8,0,1.6,0.1,2.3c0.2,1.3-0.8,2.5-2,2.7
		C52,26,45.4,33.6,45.4,42.8c0,9,6.5,16.6,15,18.4c1.3,0.3,2.6,0.4,4,0.4h0.7h7c0,0.2-0.1,0.4-0.1,0.6v24.1c0,1.9,1.6,3.5,3.5,3.5
		h2.5h7.8h2.5c1.9,0,3.5-1.6,3.5-3.5V62.3c0-0.2,0-0.4-0.1-0.6h7h0.7c1.4,0,2.7-0.1,4-0.4c8.5-1.8,15-9.4,15-18.4
		C118.3,33.6,111.7,26,102.9,24.4z"/>
	<g>
		<g>
			<path fill="#F3B982" d="M112.6,89.8c0,0,1.3,0,2.8,0l1.2,0c1.6,0,2.7-1.3,2.5-2.8c0,0-1.2-10.1-4.6-16.9c-1.1-2.2-2.4-4.4-4-6.4
				c-0.3-0.4-1.1-1.3-2.2-2.3c-1-0.9-2.1-2.1-3.1-2.9c-0.1-0.1-0.1-0.1-0.1-0.1c-0.7-1-0.3-2.7,0.9-3.7c0,0,3.7-3.3,3.7-7.4
				c0-5.7-4.6-10.3-10.3-10.3c0,0-0.1,0-0.1,0c0,0-0.1,0-0.1,0c0,0,0,0-0.1,0c0,0,0,0-0.1,0c0,0-0.1,0-0.1,0c0,0-0.1,0-0.1,0
				c-5.7,0-10.3,4.6-10.3,10.3c0,4.1,3.7,7.4,3.7,7.4c1.2,1,1.6,2.7,0.9,3.7c0,0,0,0-0.1,0.1c-1.1,0.8-2.2,2-3.1,2.9
				c-1.1,1-1.9,1.9-2.2,2.3c-1.5,2-2.8,4.2-4,6.4C80.3,76.9,79.1,87,79.1,87c-0.2,1.5,0.9,2.8,2.5,2.8l1.2,0c1.6,0,2.8,0,2.8,0
				c0,0,1.3,0,2.8,0l7.8,0c1.6,0,4.1,0,5.7,0l7.8,0C111.3,89.8,112.6,89.8,112.6,89.8z"/>
		</g>
	</g>
</g>
</svg>
